<svg width="1870" height="1550" xmlns="http://www.w3.org/2000/svg" xmlns:svg="http://www.w3.org/2000/svg">
 <!-- Created with SVG-edit - http://svg-edit.googlecode.com/ -->
 <defs>
  <filter height="200%" width="200%" y="-50%" x="-50%" id="svg_40_blur">
   <feGaussianBlur stdDeviation="8.3" in="SourceGraphic"/>
  </filter>
 </defs>
 <g stroke="null">
  <title>Layer 1</title>
  <rect stroke="#000000" id="svg_22" height="1550.7489" width="1893.48687" y="2.02523" x="-7.06116" stroke-linecap="null" stroke-linejoin="null" stroke-dasharray="null" stroke-width="0" fill="#897e4d"/>
  <ellipse fill="#7c3970" stroke-width="17" stroke-dasharray="null" stroke-linejoin="null" stroke-linecap="null" cx="459.5039" cy="269.0039" id="svg_1" rx="265" ry="255" stroke="#893f7c"/>
  <ellipse fill="#933c58" stroke-width="0" stroke-dasharray="null" stroke-linejoin="null" stroke-linecap="null" cx="419.00391" cy="253.50389" rx="203.50001" ry="210.5" id="svg_2" stroke="#000000"/>
  <ellipse fill="#893c38" stroke-width="0" stroke-dasharray="null" stroke-linejoin="null" stroke-linecap="null" cx="398.5039" cy="245.0039" rx="175" ry="184" id="svg_4" stroke="#000000"/>
  <ellipse stroke="#000000" fill="#a6af3f" stroke-width="0" stroke-dasharray="null" stroke-linejoin="null" stroke-linecap="null" cx="292.84661" cy="202.49464" rx="37.57408" ry="41.44444" id="svg_10"/>
  <ellipse id="svg_3" fill="#7c3970" stroke-width="17" stroke-dasharray="null" stroke-linejoin="null" stroke-linecap="null" cx="1376.83721" cy="261.89279" rx="265" ry="255" stroke="#893f7c"/>
  <ellipse id="svg_5" fill="#933c58" stroke-width="0" stroke-dasharray="null" stroke-linejoin="null" stroke-linecap="null" cx="1336.33722" cy="246.39278" rx="203.50001" ry="210.5" stroke="#000000"/>
  <ellipse id="svg_6" fill="#893c38" stroke-width="0" stroke-dasharray="null" stroke-linejoin="null" stroke-linecap="null" cx="1315.83721" cy="237.89279" rx="175" ry="184" stroke="#000000"/>
  <ellipse id="svg_7" fill="#a6af3f" stroke-width="0" stroke-dasharray="null" stroke-linejoin="null" stroke-linecap="null" cx="1210.17992" cy="195.38353" rx="37.57408" ry="41.44444" stroke="#000000"/>
  <rect stroke="#000000" id="svg_8" height="181.20163" width="1428.54321" y="498.01644" x="254.44033" stroke-linecap="null" stroke-linejoin="null" stroke-dasharray="null" stroke-width="0" fill="#7c3970"/>
  <rect stroke="#000000" id="svg_9" height="181.20163" width="1428.54321" y="700.28804" x="338.72017" stroke-linecap="null" stroke-linejoin="null" stroke-dasharray="null" stroke-width="0" fill="#7c3970"/>
  <rect stroke="#000000" id="svg_11" height="193.84361" width="1428.54321" y="923.62961" x="401.93005" stroke-linecap="null" stroke-linejoin="null" stroke-dasharray="null" stroke-width="0" fill="#7c3970"/>
  <rect stroke="#000000" id="svg_12" height="193.84361" width="1428.54321" y="1155.39916" x="321.86422" stroke-linecap="null" stroke-linejoin="null" stroke-dasharray="null" stroke-width="0" fill="#7c3970"/>
  <rect stroke="#000000" id="svg_13" height="160.13167" width="1428.54321" y="1387.16872" x="233.3704" stroke-linecap="null" stroke-linejoin="null" stroke-dasharray="null" stroke-width="0" fill="#7c3970"/>
  <rect stroke="#000000" id="svg_14" height="79.1294" width="1285.26749" y="628.65019" x="368.21811" stroke-linecap="null" stroke-linejoin="null" stroke-dasharray="null" stroke-width="0" fill="#7c3970"/>
  <rect stroke="#000000" id="svg_15" height="71.63786" width="1285.26749" y="868.37951" x="450.62507" stroke-linecap="null" stroke-linejoin="null" stroke-dasharray="null" stroke-width="0" fill="#7c3970"/>
  <rect stroke="#000000" id="svg_17" height="71.63786" width="1285.26749" y="1093.12575" x="428.15046" stroke-linecap="null" stroke-linejoin="null" stroke-dasharray="null" stroke-width="0" fill="#7c3970"/>
  <rect stroke="#000000" id="svg_18" height="71.63786" width="1285.26749" y="1317.87199" x="353.23505" stroke-linecap="null" stroke-linejoin="null" stroke-dasharray="null" stroke-width="0" fill="#7c3970"/>
  <ellipse id="svg_79" stroke="#000000" ry="11.55556" rx="499.55555" cy="878.45138" cx="997.56247" stroke-linecap="null" stroke-linejoin="null" stroke-dasharray="null" stroke-width="0" fill="#7c3970"/>
  <ellipse stroke="#000000" ry="217.25469" rx="471.96706" id="svg_21" cy="923.48468" cx="983.69504" stroke-linecap="null" stroke-linejoin="null" stroke-dasharray="null" stroke-width="0" fill="#7c3970"/>
  <rect stroke="#000000" id="svg_16" height="175.20163" width="6.32099" y="501.64608" x="1674.29218" stroke-linecap="null" stroke-linejoin="null" stroke-dasharray="null" stroke-width="0" fill="#c848b2"/>
  <rect stroke="#000000" id="svg_20" height="7.2016" width="32.32043" y="669.64606" x="1642.29276" stroke-linecap="null" stroke-linejoin="null" stroke-dasharray="null" stroke-width="0" fill="#c848b2"/>
  <rect stroke="#000000" id="svg_23" height="31.2016" width="13.32043" y="669.64606" x="1637.29274" stroke-linecap="null" stroke-linejoin="null" stroke-dasharray="null" stroke-width="0" fill="#c848b2"/>
  <rect id="svg_24" stroke="#000000" height="7.2016" width="32.32043" y="872.64606" x="1734.29276" stroke-linecap="null" stroke-linejoin="null" stroke-dasharray="null" stroke-width="0" fill="#c848b2"/>
  <rect id="svg_25" stroke="#000000" height="175.20163" width="6.32099" y="700.64608" x="1760.29218" stroke-linecap="null" stroke-linejoin="null" stroke-dasharray="null" stroke-width="0" fill="#c848b2"/>
  <rect id="svg_78" opacity="0.65" stroke="#000000" height="8.48559" width="1408.9269" y="872.45935" x="340.41992" stroke-linecap="null" stroke-linejoin="null" stroke-dasharray="null" stroke-width="0" fill="#c848b2"/>
  <rect stroke="#000000" id="svg_26" height="51.20161" width="13.32043" y="872.64602" x="1721.29274" stroke-linecap="null" stroke-linejoin="null" stroke-dasharray="null" stroke-width="0" fill="#c848b2"/>
  <rect stroke="#000000" id="svg_27" height="192.20164" width="6.32099" y="923.64608" x="1822.29218" stroke-linecap="null" stroke-linejoin="null" stroke-dasharray="null" stroke-width="0" fill="#c848b2"/>
  <rect stroke="#000000" id="svg_28" height="7.2016" width="121.32042" y="1108.64606" x="1702.29284" stroke-linecap="null" stroke-linejoin="null" stroke-dasharray="null" stroke-width="0" fill="#c848b2"/>
  <rect stroke="#000000" id="svg_29" height="47.26411" width="13.32043" y="1108.52102" x="1699.29274" stroke-linecap="null" stroke-linejoin="null" stroke-dasharray="null" stroke-width="0" fill="#c848b2"/>
  <rect id="svg_30" stroke="#000000" height="192.20164" width="6.32099" y="1155.95858" x="1742.97968" stroke-linecap="null" stroke-linejoin="null" stroke-dasharray="null" stroke-width="0" fill="#c848b2"/>
  <rect id="svg_31" stroke="#000000" height="7.2016" width="121.32042" y="1342.64606" x="1628.60534" stroke-linecap="null" stroke-linejoin="null" stroke-dasharray="null" stroke-width="0" fill="#c848b2"/>
  <rect stroke="#000000" id="svg_32" height="45.26411" width="13.32043" y="1342.52102" x="1625.60524" stroke-linecap="null" stroke-linejoin="null" stroke-dasharray="null" stroke-width="0" fill="#c848b2"/>
  <rect stroke="#000000" id="svg_33" height="158.20164" width="6.32099" y="1386.95858" x="1661.97968" stroke-linecap="null" stroke-linejoin="null" stroke-dasharray="null" stroke-width="0" fill="#c848b2"/>
  <ellipse stroke="#000000" id="svg_34" ry="146.08508" rx="243.27391" cy="840.75578" cx="926.70006" stroke-linecap="null" stroke-linejoin="null" stroke-dasharray="null" stroke-width="0" fill="#3c1c36"/>
  <path stroke="#000000" id="svg_39" d="m892.42191,745.44367c0,0 -115.14617,23.9245 -136.53045,31.89933c-21.3843,7.97482 -49.34836,31.89932 -27.97046,14.74724c21.37791,-17.15208 -93.75549,-14.74725 -49.34836,-39.87416c44.40714,-25.12692 256.61786,-53.02645 301.03138,-49.83651c44.41352,3.18994 -87.1821,43.0641 -87.1821,43.0641z" stroke-linecap="null" stroke-linejoin="null" stroke-dasharray="null" stroke-width="0" fill="#3c1c36"/>
  <rect stroke="#893f7c" filter="url(#svg_40_blur)" id="svg_40" height="157.95884" width="14.81479" y="502.5336" x="259.57074" stroke-linecap="null" stroke-linejoin="null" stroke-dasharray="null" stroke-width="0" fill="#893f7c"/>
  <rect stroke="#000000" id="svg_42" filter="url(#svg_40_blur)" height="11.25926" width="768.32919" y="504.31143" x="546.18801" stroke-linecap="null" stroke-linejoin="null" stroke-dasharray="null" stroke-width="0" fill="#893f7c"/>
  <rect stroke="#000000" id="svg_43" filter="url(#svg_40_blur)" height="8.62551" width="50.37034" y="500.16326" x="283.27444" stroke-linecap="null" stroke-linejoin="null" stroke-dasharray="null" stroke-width="0" fill="#893f7c"/>
  <rect stroke="#000000" id="svg_44" filter="url(#svg_40_blur)" height="15.99999" width="244.4773" y="497.20032" x="1437.44727" stroke-linecap="null" stroke-linejoin="null" stroke-dasharray="null" stroke-width="0" fill="#893f7c"/>
  <ellipse stroke="#000000" id="svg_52" ry="183.54276" rx="132.74071" cy="875.02378" cx="612.86373" stroke-linecap="null" stroke-linejoin="null" stroke-dasharray="null" stroke-width="0" fill="#7c3970"/>
  <path stroke="#000000" id="svg_56" transform="rotate(-94.4066162109375 764.5552978515625,754.8275756835938) " d="m732.86272,729.54363l31.69254,0l0,0c17.50331,0 31.69255,11.32001 31.69255,25.28394c0,13.96394 -14.18923,25.28395 -31.69255,25.28395l-31.69254,0l0,-50.56789z" opacity="0.75" stroke-linecap="null" stroke-linejoin="null" stroke-dasharray="null" stroke-width="0" fill="#ffffff"/>
  <path id="svg_57" stroke="#000000" transform="rotate(-94.4066162109375 816.1108398437501,745.9386596679689) " d="m784.41828,720.65474l31.69254,0l0,0c17.50332,0 31.69255,11.32001 31.69255,25.28394c0,13.96394 -14.18923,25.28395 -31.69255,25.28395l-31.69254,0l0,-50.56789z" opacity="0.75" stroke-linecap="null" stroke-linejoin="null" stroke-dasharray="null" stroke-width="0" fill="#ffffff"/>
  <path id="svg_58" stroke="#000000" transform="rotate(-94.4066162109375 862.3330688476562,729.9386596679688) " d="m830.6405,704.65475l31.69254,0l0,0c17.50332,0 31.69255,11.32001 31.69255,25.28394c0,13.96394 -14.18923,25.28395 -31.69255,25.28395l-31.69254,0l0,-50.56789z" opacity="0.75" stroke-linecap="null" stroke-linejoin="null" stroke-dasharray="null" stroke-width="0" fill="#ffffff"/>
  <path id="svg_59" stroke="#000000" transform="rotate(-94.4066162109375 913.8886108398438,728.160888671875) " d="m882.19607,702.87698l31.69254,0l0,0c17.50332,0 31.69255,11.32001 31.69255,25.28394c0,13.96394 -14.18923,25.28395 -31.69255,25.28395l-31.69254,0l0,-50.56789z" opacity="0.75" stroke-linecap="null" stroke-linejoin="null" stroke-dasharray="null" stroke-width="0" fill="#ffffff"/>
  <path id="svg_60" stroke="#000000" transform="rotate(-94.4066162109375 961.8886108398438,726.3831176757812) " d="m930.19607,701.09921l31.69254,0l0,0c17.50332,0 31.69255,11.32001 31.69255,25.28394c0,13.96394 -14.18923,25.28395 -31.69255,25.28395l-31.69254,0l0,-50.56789z" opacity="0.75" stroke-linecap="null" stroke-linejoin="null" stroke-dasharray="null" stroke-width="0" fill="#ffffff"/>
  <path id="svg_61" stroke="#000000" transform="rotate(-94.4066162109375 1009.8886108398435,722.8275146484374) " d="m978.19608,697.54365l31.69254,0l0,0c17.50332,0 31.69255,11.32001 31.69255,25.28394c0,13.96394 -14.18923,25.28395 -31.69255,25.28395l-31.69254,0l0,-50.56789z" opacity="0.75" stroke-linecap="null" stroke-linejoin="null" stroke-dasharray="null" stroke-width="0" fill="#ffffff"/>
  <path id="svg_62" stroke="#000000" transform="rotate(-94.4066162109375 1061.4442138671875,726.383056640625) " d="m1029.75164,701.09921l31.69254,0l0,0c17.50332,0 31.69255,11.32001 31.69255,25.28394c0,13.96394 -14.18923,25.28395 -31.69255,25.28395l-31.69254,0l0,-50.56789z" opacity="0.75" stroke-linecap="null" stroke-linejoin="null" stroke-dasharray="null" stroke-width="0" fill="#ffffff"/>
  <path stroke="#000000" style="vector-effect: non-scaling-stroke;" id="svg_63" transform="rotate(-94.4066162109375 1107.66650390625,733.4942626953125) " d="m1075.97386,708.21032l31.69254,0l0,0c17.50332,0 31.69255,11.32001 31.69255,25.28394c0,13.96394 -14.18923,25.28395 -31.69255,25.28395l-31.69254,0l0,-50.56789z" opacity="0.75" stroke-linecap="null" stroke-linejoin="null" stroke-dasharray="null" stroke-width="0" fill="#ffffff"/>
  <path id="svg_64" stroke="#000000" transform="rotate(-94.4066162109375 1152.11083984375,740.6052246093749) " d="m1120.41831,715.32144l31.69254,0l0,0c17.50332,0 31.69255,11.32001 31.69255,25.28394c0,13.96394 -14.18923,25.28395 -31.69255,25.28395l-31.69254,0l0,-50.56789z" opacity="0.75" stroke-linecap="null" stroke-linejoin="null" stroke-dasharray="null" stroke-width="0" fill="#ffffff"/>
  <path id="svg_65" stroke="#000000" transform="rotate(82.90863800048828 815.3330688476564,865.8276367187499) " d="m783.64053,840.54366l31.69254,0l0,0c17.50332,0 31.69255,11.32001 31.69255,25.28394c0,13.96394 -14.18923,25.28395 -31.69255,25.28395l-31.69254,0l0,-50.56789z" opacity="0.75" stroke-linecap="null" stroke-linejoin="null" stroke-dasharray="null" stroke-width="0" fill="#ffffff"/>
  <path id="svg_66" stroke="#000000" transform="rotate(82.90863800048828 859.3330688476564,855.7164916992186) " d="m827.64053,830.43255l31.69254,0l0,0c17.50332,0 31.69255,11.32001 31.69255,25.28394c0,13.96394 -14.18923,25.28395 -31.69255,25.28395l-31.69254,0l0,-50.56789z" opacity="0.75" stroke-linecap="null" stroke-linejoin="null" stroke-dasharray="null" stroke-width="0" fill="#ffffff"/>
  <path id="svg_67" stroke="#000000" transform="rotate(82.90863800048828 906.777526855469,843.7164916992186) " d="m875.08498,818.43255l31.69254,0l0,0c17.50332,0 31.69255,11.32001 31.69255,25.28394c0,13.96394 -14.18923,25.28395 -31.69255,25.28395l-31.69254,0l0,-50.56789z" opacity="0.75" stroke-linecap="null" stroke-linejoin="null" stroke-dasharray="null" stroke-width="0" fill="#ffffff"/>
  <path id="svg_68" stroke="#000000" transform="rotate(82.90863800048828 963.6663818359375,838.3831176757811) " d="m931.97387,813.09922l31.69254,0l0,0c17.50332,0 31.69255,11.32001 31.69255,25.28394c0,13.96394 -14.18923,25.28395 -31.69255,25.28395l-31.69254,0l0,-50.56789z" opacity="0.75" stroke-linecap="null" stroke-linejoin="null" stroke-dasharray="null" stroke-width="0" fill="#ffffff"/>
  <path id="svg_69" stroke="#000000" transform="rotate(82.90863800048828 1015.221923828125,834.8275756835938) " d="m983.52943,809.54367l31.69254,0l0,0c17.50332,0 31.69255,11.32001 31.69255,25.28394c0,13.96394 -14.18923,25.28395 -31.69255,25.28395l-31.69254,0l0,-50.56789z" opacity="0.75" stroke-linecap="null" stroke-linejoin="null" stroke-dasharray="null" stroke-width="0" fill="#ffffff"/>
  <path id="svg_70" stroke="#000000" transform="rotate(82.90863800048828 1072.11083984375,833.0498046874998) " d="m1040.41832,807.7659l31.69254,0l0,0c17.50332,0 31.69255,11.32001 31.69255,25.28394c0,13.96394 -14.18923,25.28395 -31.69255,25.28395l-31.69254,0l0,-50.56789z" opacity="0.75" stroke-linecap="null" stroke-linejoin="null" stroke-dasharray="null" stroke-width="0" fill="#ffffff"/>
  <path id="svg_71" stroke="#000000" transform="rotate(82.90863800048828 1085.444091796875,823.6053466796875) " d="m1053.75165,798.32146l31.69254,0l0,0c17.50332,0 31.69255,11.32001 31.69255,25.28394c0,13.96394 -14.18923,25.28395 -31.69255,25.28395l-31.69254,0l0,-50.56789z" opacity="0.75" stroke-linecap="null" stroke-linejoin="null" stroke-dasharray="null" stroke-width="0" fill="#ffffff"/>
  <ellipse id="svg_35" stroke="#000000" ry="217.25469" rx="471.96706" cy="1047.79744" cx="1133.29175" stroke-linecap="null" stroke-linejoin="null" stroke-dasharray="null" stroke-width="0" fill="#7c3970"/>
  <rect opacity="0.65" stroke="#000000" id="svg_73" height="8.48559" width="1408.9269" y="669.61213" x="258.62131" stroke-linecap="null" stroke-linejoin="null" stroke-dasharray="null" stroke-width="0" fill="#c848b2"/>
  <rect id="svg_74" opacity="0.65" stroke="#000000" height="8.48559" width="1408.9269" y="666.23713" x="269.30881" stroke-linecap="null" stroke-linejoin="null" stroke-dasharray="null" stroke-width="0" fill="#c848b2"/>
  <ellipse stroke="#000000" ry="11.55556" rx="499.55555" id="svg_75" cy="672.22916" cx="926.45136" stroke-linecap="null" stroke-linejoin="null" stroke-dasharray="null" stroke-width="0" fill="#7c3970"/>
  <rect id="svg_80" opacity="0.65" stroke="#000000" height="8.48559" width="1408.9269" y="1104.75564" x="404.41992" stroke-linecap="null" stroke-linejoin="null" stroke-dasharray="null" stroke-width="0" fill="#c848b2"/>
  <ellipse id="svg_81" stroke="#000000" ry="11.55556" rx="499.55555" cy="1110.74767" cx="1061.56247" stroke-linecap="null" stroke-linejoin="null" stroke-dasharray="null" stroke-width="0" fill="#7c3970"/>
  <rect id="svg_84" opacity="0.65" stroke="#000000" height="8.48559" width="1408.9269" y="1334.68157" x="328.56806" stroke-linecap="null" stroke-linejoin="null" stroke-dasharray="null" stroke-width="0" fill="#c848b2"/>
  <ellipse id="svg_85" stroke="#000000" ry="11.55556" rx="499.55555" cy="1340.6736" cx="985.71061" stroke-linecap="null" stroke-linejoin="null" stroke-dasharray="null" stroke-width="0" fill="#7c3970"/>
 </g>
</svg>